<svg xmlns="http://www.w3.org/2000/svg" viewBox="0 0 915.69 186.53"><defs><style>.cls-1{fill:#ff0;}.cls-2{fill:red;}.cls-3{fill:#5b5603;}</style></defs><g id="Capa_2" data-name="Capa 2"><g id="Capa_1-2" data-name="Capa 1"><path class="cls-1" d="M129.77,83a44.88,44.88,0,0,1-16.29,36.52,23,23,0,0,0-8.17,17.77v12.83a4.82,4.82,0,0,1-4.82,4.82H69.13a4.82,4.82,0,0,1-4.82-4.82V137.26a23.76,23.76,0,0,0-8.57-18.1,45,45,0,1,1,74-36.19Z"/><path d="M84.81,39.81h.1a45,45,0,0,1,28.57,79.68,23,23,0,0,0-8.17,17.77v12.83a4.82,4.82,0,0,1-4.82,4.82H69.13a4.82,4.82,0,0,1-4.82-4.82V137.26a23.76,23.76,0,0,0-8.57-18.1A45,45,0,0,1,84.81,39.81m0-4h0a49,49,0,0,0-31.65,86.4,19.81,19.81,0,0,1,7.15,15v12.83a8.83,8.83,0,0,0,8.82,8.82h31.36a8.83,8.83,0,0,0,8.82-8.82V137.26A18.94,18.94,0,0,1,116,122.57,49,49,0,0,0,84.92,35.81Z"/><path d="M103.34,168.35H66.28a2,2,0,0,1,0-4h37.06a2,2,0,0,1,0,4Z"/><path d="M100.78,177.44H68.84a2,2,0,0,1,0-4h31.94a2,2,0,1,1,0,4Z"/><path d="M98.21,186.53H71.41a2,2,0,0,1,0-4h26.8a2,2,0,1,1,0,4Z"/><path class="cls-2" d="M110.89,108.64a35,35,0,0,1-53-1c.46-.08,15.3-2.47,25.28,2h0C96.88,105.9,110.89,108.64,110.89,108.64Z"/><path class="cls-3" d="M117.81,97a35.06,35.06,0,0,1-6.92,11.66s-14-2.74-27.76,1h0c-10-4.49-24.82-2.1-25.28-2h0a35,35,0,0,1-6-10.62Z"/><path d="M110,81.05a2.64,2.64,0,0,1-.73-.11L95.38,76.75a2.5,2.5,0,0,1-.57-4.54l13.88-8.38a2.5,2.5,0,1,1,2.59,4.27l-9.07,5.48,8.5,2.57a2.5,2.5,0,0,1-.72,4.9Z"/><path d="M59.63,81.05a2.5,2.5,0,0,1-.72-4.9l8.51-2.57L58.34,68.1a2.5,2.5,0,0,1,2.59-4.27l13.88,8.38a2.5,2.5,0,0,1-.57,4.54L60.36,80.94A2.64,2.64,0,0,1,59.63,81.05Z"/><path d="M84.81,121.81A36.55,36.55,0,0,1,50.4,97.48a1.46,1.46,0,0,1,.19-1.37,1.5,1.5,0,0,1,1.22-.63h66a1.53,1.53,0,0,1,1.23.63,1.49,1.49,0,0,1,.18,1.37A36.55,36.55,0,0,1,84.81,121.81ZM54,98.48a33.51,33.51,0,0,0,61.62,0Z"/><path d="M87.47,113.85a1.51,1.51,0,0,1-1-.37c-8.67-7.59-28.21-4.44-28.4-4.4a1.52,1.52,0,0,1-1.73-1.24,1.49,1.49,0,0,1,1.23-1.72c.86-.15,21.13-3.43,30.88,5.1a1.5,1.5,0,0,1-1,2.63Z"/><path d="M83.12,111.12a1.5,1.5,0,0,1-.39-3c13.92-3.77,27.86-1.11,28.45-1a1.5,1.5,0,0,1-.57,3c-.14,0-13.87-2.63-27.1.95A1.74,1.74,0,0,1,83.12,111.12Z"/><path d="M167.12,87.31h-24a2.5,2.5,0,0,1,0-5h24a2.5,2.5,0,0,1,0,5Z"/><path d="M26.52,87.31H2.5a2.5,2.5,0,0,1,0-5h24a2.5,2.5,0,0,1,0,5Z"/><path d="M84.81,29a2.5,2.5,0,0,1-2.5-2.5V2.5a2.5,2.5,0,0,1,5,0v24A2.5,2.5,0,0,1,84.81,29Z"/><path d="M135.3,58.16a2.52,2.52,0,0,1-2.17-1.25,2.49,2.49,0,0,1,.92-3.41l20.79-12a2.5,2.5,0,0,1,2.5,4.33l-20.79,12A2.54,2.54,0,0,1,135.3,58.16Z"/><path d="M114,36.82a2.45,2.45,0,0,1-1.25-.34,2.49,2.49,0,0,1-.92-3.41l12-20.79a2.5,2.5,0,1,1,4.33,2.5l-12,20.79A2.49,2.49,0,0,1,114,36.82Z"/><path d="M34.32,58.16a2.54,2.54,0,0,1-1.25-.33l-20.79-12a2.5,2.5,0,0,1,2.5-4.33l20.79,12a2.49,2.49,0,0,1,.92,3.41A2.52,2.52,0,0,1,34.32,58.16Z"/><path d="M55.65,36.82a2.49,2.49,0,0,1-2.16-1.25l-12-20.79a2.5,2.5,0,1,1,4.33-2.5l12,20.79a2.49,2.49,0,0,1-.92,3.41A2.45,2.45,0,0,1,55.65,36.82Z"/><path d="M215,78.72a6.44,6.44,0,0,1,6.48-6.58,6.53,6.53,0,0,1,6.58,6.58v2.7c3.68-5.07,8.64-9.82,17.39-9.82,8.21,0,14,4,17.07,10,4.53-6,10.58-10,19.22-10,12.42,0,20,7.88,20,21.81v30.46a6.37,6.37,0,0,1-6.48,6.48,6.46,6.46,0,0,1-6.59-6.48V97.41c0-9.07-4.21-13.93-11.55-13.93-7.13,0-12.21,5-12.21,14.15v26.24a6.54,6.54,0,0,1-13.07,0V97.3c0-8.86-4.32-13.82-11.55-13.82s-12.21,5.4-12.21,14.15v26.24a6.53,6.53,0,0,1-13.06,0Z"/><path d="M342.24,131.11c-16.52,0-29.27-12-29.27-29.6v-.21c0-16.31,11.56-29.7,27.87-29.7C359,71.6,368,86.5,368,99.68a6.11,6.11,0,0,1-6.16,6.26H326c1.4,9.29,8,14.47,16.42,14.47a20.5,20.5,0,0,0,13.5-5,4.83,4.83,0,0,1,3.35-1.19,5.14,5.14,0,0,1,5.18,5.29,5.74,5.74,0,0,1-1.73,4C357.58,128.19,351.1,131.11,342.24,131.11Zm13-33.81c-.86-8.42-5.83-15-14.47-15-8,0-13.61,6.15-14.8,15Z"/><path d="M379.52,78.72A6.45,6.45,0,0,1,386,72.14a6.54,6.54,0,0,1,6.59,6.58v2.7c3.67-5.07,8.64-9.82,17.39-9.82,8.2,0,14,4,17.06,10,4.54-6,10.59-10,19.23-10,12.42,0,20,7.88,20,21.81v30.46a6.37,6.37,0,0,1-6.48,6.48,6.45,6.45,0,0,1-6.59-6.48V97.41c0-9.07-4.21-13.93-11.56-13.93-7.13,0-12.2,5-12.2,14.15v26.24a6.54,6.54,0,0,1-13.07,0V97.3c0-8.86-4.32-13.82-11.56-13.82s-12.2,5.4-12.2,14.15v26.24a6.54,6.54,0,0,1-13.07,0Z"/><path d="M506.76,131.11c-16.53,0-29.27-12-29.27-29.6v-.21c0-16.31,11.55-29.7,27.86-29.7,18.15,0,27.11,14.9,27.11,28.08a6.11,6.11,0,0,1-6.16,6.26H490.56c1.4,9.29,8,14.47,16.41,14.47a20.5,20.5,0,0,0,13.5-5,4.85,4.85,0,0,1,3.35-1.19,5.14,5.14,0,0,1,5.18,5.29,5.73,5.73,0,0,1-1.72,4C522.09,128.19,515.61,131.11,506.76,131.11Zm13-33.81c-.87-8.42-5.84-15-14.48-15-8,0-13.6,6.15-14.79,15Z"/><path d="M540.54,101.62v-.21c0-16.31,13-29.81,30.45-29.81s30.35,13.28,30.35,29.59v.22c0,16.2-13,29.7-30.56,29.7C553.39,131.11,540.54,117.82,540.54,101.62Zm47.73,0v-.21c0-10-7.23-18.36-17.49-18.36-10.48,0-17.18,8.2-17.18,18.14v.22c0,9.93,7.24,18.25,17.39,18.25C581.58,119.66,588.27,111.45,588.27,101.62Z"/><path d="M614.26,114V84H612.1a5.62,5.62,0,0,1,0-11.24h2.16V63.06a6.54,6.54,0,0,1,13.07,0v9.72h10.26a5.62,5.62,0,1,1,0,11.24H627.33v28c0,5.08,2.59,7.13,7,7.13a30.67,30.67,0,0,0,3.24-.33,5.51,5.51,0,0,1,5.5,5.4,5.63,5.63,0,0,1-3.45,5.08,26.07,26.07,0,0,1-9,1.51C621.06,130.78,614.26,126.57,614.26,114Z"/><path d="M677.39,131.11c-16.52,0-29.26-12-29.26-29.6v-.21c0-16.31,11.55-29.7,27.86-29.7,18.14,0,27.11,14.9,27.11,28.08a6.11,6.11,0,0,1-6.16,6.26H661.19c1.41,9.29,8,14.47,16.42,14.47a20.5,20.5,0,0,0,13.5-5,4.85,4.85,0,0,1,3.35-1.19,5.14,5.14,0,0,1,5.18,5.29,5.7,5.7,0,0,1-1.73,4C692.73,128.19,686.25,131.11,677.39,131.11Zm13-33.81c-.86-8.42-5.83-15-14.47-15-8,0-13.61,6.15-14.79,15Z"/><path d="M711.18,101.62v-.21a29.43,29.43,0,0,1,29.7-29.81c9,0,15.12,2.91,20,7.12a6.23,6.23,0,0,1,2,4.54,6,6,0,0,1-6,5.94A6.67,6.67,0,0,1,753,87.9c-3.35-2.8-7-4.85-12.2-4.85-9.51,0-16.53,8.2-16.53,18.14v.22c0,10.15,7,18.25,17.07,18.25,5.18,0,9.18-2,12.74-5.08a5.51,5.51,0,0,1,9.18,4.32A5.13,5.13,0,0,1,761.4,123c-5.08,4.86-11.24,8.1-20.74,8.1A29.11,29.11,0,0,1,711.18,101.62Z"/><path d="M774.29,78.72a6.45,6.45,0,0,1,6.48-6.58,6.54,6.54,0,0,1,6.59,6.58v2.81c3.67-5.29,9-9.93,17.82-9.93,12.85,0,20.3,8.64,20.3,21.81v30.46a6.37,6.37,0,0,1-6.48,6.48,6.46,6.46,0,0,1-6.59-6.48V97.41c0-8.86-4.42-13.93-12.2-13.93-7.56,0-12.85,5.29-12.85,14.15v26.24a6.54,6.54,0,0,1-13.07,0Z"/><path d="M839,57.45c0-3.89,3.24-6.37,7.45-6.37s7.45,2.48,7.45,6.37v.65c0,3.88-3.24,6.48-7.45,6.48S839,62,839,58.1Zm1,21.27a6.45,6.45,0,0,1,6.48-6.58A6.54,6.54,0,0,1,853,78.72v45.15a6.54,6.54,0,0,1-13.07,0Z"/><path d="M864.18,113.39v-.21c0-12.31,9.61-18.36,23.54-18.36a47.81,47.81,0,0,1,15.34,2.37v-1.4c0-8.1-5-12.42-14.15-12.42a33.78,33.78,0,0,0-12.64,2.27,7.49,7.49,0,0,1-2,.32,5.44,5.44,0,0,1-5.51-5.4,5.68,5.68,0,0,1,3.57-5.18A48.73,48.73,0,0,1,890.64,72c8.53,0,14.9,2.27,18.9,6.37,4.21,4.11,6.15,10.15,6.15,17.61v28.08a6.22,6.22,0,0,1-6.37,6.26c-3.78,0-6.37-2.59-6.37-5.51v-2.16c-3.89,4.65-9.83,8.32-18.58,8.32C873.68,131,864.18,124.84,864.18,113.39Zm39.09-4.1V105.4a36.3,36.3,0,0,0-13-2.27c-8.42,0-13.39,3.57-13.39,9.51v.21c0,5.51,4.86,8.64,11.13,8.64C896.69,121.49,903.27,116.53,903.27,109.29Z"/></g></g></svg>