<svg xmlns="http://www.w3.org/2000/svg" viewBox="0 0 711.57 515.27"><defs><style>.cls-1{fill:#ff0;}.cls-2{fill:red;}.cls-3{fill:#5b5603;}</style></defs><g id="Capa_2" data-name="Capa 2"><g id="Capa_1-2" data-name="Capa 1"><path class="cls-1" d="M432.12,141.41a76.57,76.57,0,0,1-27.77,62.26A39.2,39.2,0,0,0,390.42,234v21.88a8.22,8.22,0,0,1-8.21,8.21H328.76a8.22,8.22,0,0,1-8.22-8.21V233.94a40.52,40.52,0,0,0-14.6-30.84A76.7,76.7,0,0,1,355.65,67.85C396.43,67.94,430.49,100.66,432.12,141.41Z"/><path d="M355.48,67.85h.17c40.78.09,74.84,32.81,76.47,73.56a76.59,76.59,0,0,1-27.77,62.26A39.2,39.2,0,0,0,390.42,234v21.88a8.22,8.22,0,0,1-8.21,8.21H328.76a8.22,8.22,0,0,1-8.22-8.21V233.94a40.54,40.54,0,0,0-14.6-30.84A76.7,76.7,0,0,1,355.48,67.85m0-6.81h0a83.51,83.51,0,0,0-54,147.26,33.71,33.71,0,0,1,12.19,25.64v21.89a15.05,15.05,0,0,0,15,15h53.45a15,15,0,0,0,15-15V234a32.26,32.26,0,0,1,11.46-25A83.6,83.6,0,0,0,355.66,61Z"/><path d="M387.06,286.94H323.9a3.41,3.41,0,1,1,0-6.81h63.16a3.41,3.41,0,1,1,0,6.81Z"/><path d="M382.7,302.43H328.27a3.41,3.41,0,1,1,0-6.81H382.7a3.41,3.41,0,0,1,0,6.81Z"/><path d="M378.33,317.92H332.64a3.41,3.41,0,1,1,0-6.82h45.69a3.41,3.41,0,1,1,0,6.82Z"/><path class="cls-2" d="M399.93,185.17a59.61,59.61,0,0,1-90.42-1.77c.79-.14,26.08-4.21,43.09,3.44h0C376.05,180.5,399.93,185.17,399.93,185.17Z"/><path class="cls-3" d="M411.73,165.3a60,60,0,0,1-11.8,19.87s-23.88-4.67-47.31,1.67h0c-17-7.65-42.3-3.58-43.09-3.44h0a59.55,59.55,0,0,1-10.26-18.1Z"/><path d="M398.39,138.14a4.36,4.36,0,0,1-1.23-.18l-23.67-7.15a4.27,4.27,0,0,1-1-7.73l23.67-14.29a4.26,4.26,0,1,1,4.4,7.29l-15.46,9.34,14.49,4.38a4.26,4.26,0,0,1-1.23,8.34Z"/><path d="M312.57,138.14a4.26,4.26,0,0,1-1.23-8.34l14.49-4.38-15.46-9.34a4.26,4.26,0,1,1,4.41-7.29l23.66,14.29a4.26,4.26,0,0,1-1,7.73L313.81,138A4.48,4.48,0,0,1,312.57,138.14Z"/><path d="M355.48,207.62a62.32,62.32,0,0,1-58.66-41.47,2.58,2.58,0,0,1,.33-2.33,2.56,2.56,0,0,1,2.09-1.08H411.73a2.55,2.55,0,0,1,2.41,3.41A62.3,62.3,0,0,1,355.48,207.62ZM303,167.85a57.11,57.11,0,0,0,105,0Z"/><path d="M360,194.05a2.54,2.54,0,0,1-1.68-.64c-14.78-12.93-48.08-7.55-48.42-7.49a2.56,2.56,0,0,1-.84-5c1.46-.24,36-5.84,52.63,8.7a2.56,2.56,0,0,1-1.69,4.48Z"/><path d="M352.6,189.4a2.56,2.56,0,0,1-.66-5c23.73-6.42,47.49-1.9,48.49-1.7a2.56,2.56,0,0,1-1,5c-.24-.05-23.63-4.48-46.18,1.62A2.52,2.52,0,0,1,352.6,189.4Z"/><path d="M495.77,148.82H454.83a4.27,4.27,0,0,1,0-8.53h40.94a4.27,4.27,0,0,1,0,8.53Z"/><path d="M256.13,148.82H215.19a4.27,4.27,0,0,1,0-8.53h40.94a4.27,4.27,0,0,1,0,8.53Z"/><path d="M355.48,49.46a4.26,4.26,0,0,1-4.26-4.26V4.26a4.26,4.26,0,1,1,8.52,0V45.2A4.25,4.25,0,0,1,355.48,49.46Z"/><path d="M441.54,99.13a4.26,4.26,0,0,1-2.13-7.95l35.43-20.47a4.26,4.26,0,0,1,4.27,7.38L443.67,98.56A4.2,4.2,0,0,1,441.54,99.13Z"/><path d="M405.16,62.76a4.26,4.26,0,0,1-3.68-6.39l20.45-35.44a4.26,4.26,0,0,1,7.38,4.26L408.86,60.63A4.29,4.29,0,0,1,405.16,62.76Z"/><path d="M269.42,99.13a4.26,4.26,0,0,1-2.13-.57L231.86,78.09a4.26,4.26,0,0,1,4.26-7.38l35.44,20.47a4.26,4.26,0,0,1-2.14,7.95Z"/><path d="M305.79,62.76a4.27,4.27,0,0,1-3.7-2.13L281.64,25.19A4.26,4.26,0,1,1,289,20.93l20.45,35.44a4.26,4.26,0,0,1-3.68,6.39Z"/><path d="M70.94,373.15a5.2,5.2,0,0,1,5.22-5.3,5.27,5.27,0,0,1,5.3,5.3v2.18c3-4.09,7-7.91,14-7.91,6.6,0,11.29,3.21,13.73,8.08,3.65-4.87,8.52-8.08,15.47-8.08,10,0,16.08,6.34,16.08,17.56v24.51a5.12,5.12,0,0,1-5.22,5.21,5.2,5.2,0,0,1-5.3-5.21v-21.3c0-7.3-3.39-11.21-9.3-11.21-5.73,0-9.82,4-9.82,11.39v21.12a5.26,5.26,0,0,1-10.52,0V388.11c0-7.13-3.47-11.13-9.3-11.13s-9.82,4.35-9.82,11.39v21.12a5.26,5.26,0,0,1-10.52,0Z"/><path d="M173.91,415.31c-13.3,0-23.56-9.65-23.56-23.82v-.17c0-13.12,9.3-23.9,22.43-23.9,14.6,0,21.81,12,21.81,22.6a4.92,4.92,0,0,1-5,5H160.87c1.13,7.47,6.43,11.65,13.21,11.65a16.5,16.5,0,0,0,10.86-4,3.93,3.93,0,0,1,2.7-1,4.14,4.14,0,0,1,4.17,4.26,4.63,4.63,0,0,1-1.39,3.22A23.59,23.59,0,0,1,173.91,415.31Zm10.43-27.2c-.7-6.78-4.7-12.09-11.65-12.09-6.43,0-10.95,5-11.91,12.09Z"/><path d="M204.47,373.15a5.2,5.2,0,0,1,5.22-5.3,5.27,5.27,0,0,1,5.3,5.3v2.18c2.95-4.09,6.95-7.91,14-7.91,6.61,0,11.3,3.21,13.73,8.08,3.65-4.87,8.52-8.08,15.48-8.08,10,0,16.08,6.34,16.08,17.56v24.51a5.13,5.13,0,0,1-5.22,5.21,5.19,5.19,0,0,1-5.3-5.21v-21.3c0-7.3-3.39-11.21-9.3-11.21-5.74,0-9.82,4-9.82,11.39v21.12a5.26,5.26,0,0,1-10.52,0V388.11c0-7.13-3.48-11.13-9.3-11.13S215,381.33,215,388.37v21.12a5.26,5.26,0,0,1-10.52,0Z"/><path d="M307.43,415.31c-13.3,0-23.55-9.65-23.55-23.82v-.17c0-13.12,9.3-23.9,22.42-23.9,14.6,0,21.82,12,21.82,22.6a4.92,4.92,0,0,1-5,5H294.39c1.13,7.47,6.44,11.65,13.22,11.65a16.5,16.5,0,0,0,10.86-4,3.91,3.91,0,0,1,2.69-1,4.15,4.15,0,0,1,4.18,4.26,4.63,4.63,0,0,1-1.39,3.22A23.62,23.62,0,0,1,307.43,415.31Zm10.43-27.2c-.69-6.78-4.69-12.09-11.65-12.09-6.43,0-10.95,5-11.9,12.09Z"/><path d="M335.19,391.58v-.17c0-13.13,10.43-24,24.51-24s24.42,10.69,24.42,23.81v.18c0,13-10.43,23.9-24.59,23.9C345.53,415.31,335.19,404.62,335.19,391.58Zm38.42,0v-.17c0-8.09-5.83-14.78-14.08-14.78-8.44,0-13.82,6.61-13.82,14.6v.18c0,8,5.82,14.69,14,14.69C368.22,406.1,373.61,399.49,373.61,391.58Z"/><path d="M395.11,401.58V377.41h-1.73a4.52,4.52,0,1,1,0-9h1.73v-7.82a5.26,5.26,0,0,1,10.52,0v7.82h8.26a4.52,4.52,0,1,1,0,9h-8.26v22.52c0,4.08,2.09,5.73,5.65,5.73a25,25,0,0,0,2.61-.26,4.43,4.43,0,0,1,4.43,4.35,4.52,4.52,0,0,1-2.78,4.08,20.72,20.72,0,0,1-7.21,1.22C400.59,415.05,395.11,411.66,395.11,401.58Z"/><path d="M446.56,415.31c-13.29,0-23.55-9.65-23.55-23.82v-.17c0-13.12,9.3-23.9,22.42-23.9,14.61,0,21.82,12,21.82,22.6a4.92,4.92,0,0,1-4.95,5H433.53c1.13,7.47,6.43,11.65,13.21,11.65a16.5,16.5,0,0,0,10.86-4,3.93,3.93,0,0,1,2.7-1,4.14,4.14,0,0,1,4.17,4.26,4.63,4.63,0,0,1-1.39,3.22A23.6,23.6,0,0,1,446.56,415.31ZM457,388.11c-.69-6.78-4.69-12.09-11.64-12.09-6.43,0-11,5-11.91,12.09Z"/><path d="M474.32,391.58v-.17a23.68,23.68,0,0,1,23.9-24,23.26,23.26,0,0,1,16.08,5.73A5,5,0,0,1,516,376.8a4.79,4.79,0,0,1-4.86,4.79,5.35,5.35,0,0,1-3.13-1,14.56,14.56,0,0,0-9.82-3.91c-7.65,0-13.3,6.61-13.3,14.6v.18c0,8.17,5.65,14.69,13.73,14.69A15.31,15.31,0,0,0,508.83,402a4.43,4.43,0,0,1,7.38,3.48,4.1,4.1,0,0,1-1.47,3.3c-4.09,3.91-9,6.52-16.69,6.52A23.43,23.43,0,0,1,474.32,391.58Z"/><path d="M525.68,373.15a5.2,5.2,0,0,1,5.22-5.3,5.26,5.26,0,0,1,5.3,5.3v2.27c3-4.26,7.22-8,14.34-8,10.35,0,16.34,6.95,16.34,17.56v24.51a5.12,5.12,0,0,1-5.21,5.21,5.19,5.19,0,0,1-5.3-5.21v-21.3c0-7.13-3.57-11.21-9.82-11.21-6.09,0-10.35,4.26-10.35,11.39v21.12a5.26,5.26,0,0,1-10.52,0Z"/><path d="M578.29,356c0-3.13,2.61-5.13,6-5.13s6,2,6,5.13v.52c0,3.13-2.61,5.22-6,5.22s-6-2.09-6-5.22Zm.78,17.12a5.2,5.2,0,0,1,5.22-5.3,5.26,5.26,0,0,1,5.3,5.3v36.34a5.26,5.26,0,0,1-10.52,0Z"/><path d="M599.16,401.06v-.18c0-9.91,7.74-14.77,19-14.77A38.3,38.3,0,0,1,630.45,388v-1.13c0-6.52-4-10-11.38-10a27.25,27.25,0,0,0-10.17,1.83,6.06,6.06,0,0,1-1.65.26,4.38,4.38,0,0,1-4.44-4.35,4.6,4.6,0,0,1,2.87-4.17,39.4,39.4,0,0,1,14.78-2.69c6.87,0,12,1.82,15.21,5.13,3.39,3.3,5,8.16,5,14.16v22.6a5,5,0,0,1-5.12,5c-3,0-5.13-2.08-5.13-4.43v-1.74a18.64,18.64,0,0,1-15,6.69C606.81,415.22,599.16,410.27,599.16,401.06Zm31.47-3.31v-3.13a29.26,29.26,0,0,0-10.43-1.82c-6.78,0-10.78,2.87-10.78,7.65v.17c0,4.43,3.91,6.95,9,6.95C625.33,407.57,630.63,403.58,630.63,397.75Z"/><path d="M.34,505l10.92-24.36a3.28,3.28,0,0,1,3.11-2.1h.25a3.23,3.23,0,0,1,3.07,2.1L28.61,505a2.26,2.26,0,0,1,.29,1.09,2.42,2.42,0,0,1-2.44,2.48,2.67,2.67,0,0,1-2.52-1.8l-2.39-5.51H7.27l-2.48,5.67a2.49,2.49,0,0,1-2.4,1.64A2.36,2.36,0,0,1,0,506.16,2.66,2.66,0,0,1,.34,505Zm19.24-8.32-5.17-11.88L9.24,496.66Z"/><path d="M33.24,488.47a2.51,2.51,0,0,1,2.52-2.56,2.55,2.55,0,0,1,2.57,2.56v1.39a8.87,8.87,0,0,1,7.56-4.16c5.21,0,10.29,4.12,10.29,11.51v.08c0,7.36-5,11.51-10.29,11.51a9,9,0,0,1-7.56-3.9v7.85a2.55,2.55,0,0,1-5.09,0ZM51,497.29v-.08c0-4.28-2.9-7.1-6.34-7.1s-6.47,2.86-6.47,7.1v.08c0,4.25,3,7.1,6.47,7.1S51,501.66,51,497.29Z"/><path d="M61.18,488.47a2.51,2.51,0,0,1,2.52-2.56,2.54,2.54,0,0,1,2.56,2.56v2.27c1.18-2.77,3.36-4.87,5.59-4.87a2.36,2.36,0,0,1,2.52,2.52,2.39,2.39,0,0,1-2,2.44c-3.61.63-6.09,3.4-6.09,8.65V506a2.53,2.53,0,0,1-2.56,2.52A2.5,2.5,0,0,1,61.18,506Z"/><path d="M87.57,508.85a11.07,11.07,0,0,1-11.39-11.51v-.09c0-6.34,4.5-11.55,10.84-11.55,7.06,0,10.55,5.8,10.55,10.92a2.38,2.38,0,0,1-2.4,2.44H81.27a6.19,6.19,0,0,0,6.38,5.63,8,8,0,0,0,5.25-1.93,1.89,1.89,0,0,1,1.31-.47,2,2,0,0,1,2,2.06,2.23,2.23,0,0,1-.67,1.56A11.43,11.43,0,0,1,87.57,508.85Zm5-13.15c-.34-3.28-2.27-5.84-5.63-5.84-3.11,0-5.29,2.39-5.76,5.84Z"/><path d="M102.45,488.47a2.51,2.51,0,0,1,2.52-2.56,2.55,2.55,0,0,1,2.56,2.56v1.1a8,8,0,0,1,6.93-3.87c5,0,7.9,3.36,7.9,8.49V506a2.48,2.48,0,0,1-2.52,2.52,2.51,2.51,0,0,1-2.57-2.52V495.74c0-3.44-1.72-5.42-4.74-5.42s-5,2.06-5,5.5V506a2.54,2.54,0,0,1-5.08,0Z"/><path d="M150.07,506a2.54,2.54,0,0,1-5.08,0v-1.38a8.88,8.88,0,0,1-7.56,4.15c-5.21,0-10.29-4.15-10.29-11.51v-.08c0-7.35,5-11.51,10.29-11.51a9.09,9.09,0,0,1,7.56,3.91V480a2.54,2.54,0,0,1,5.08,0Zm-17.81-8.82v.08c0,4.29,2.94,7.1,6.39,7.1s6.42-2.85,6.42-7.1v-.08c0-4.28-3-7.1-6.42-7.1S132.26,492.8,132.26,497.21Z"/><path d="M166.41,508.85A11.07,11.07,0,0,1,155,497.34v-.09c0-6.34,4.49-11.55,10.84-11.55,7,0,10.54,5.8,10.54,10.92a2.38,2.38,0,0,1-2.39,2.44H160.11a6.2,6.2,0,0,0,6.39,5.63,8,8,0,0,0,5.25-1.93,1.86,1.86,0,0,1,1.3-.47,2,2,0,0,1,2,2.06,2.24,2.24,0,0,1-.68,1.56A11.39,11.39,0,0,1,166.41,508.85Zm5-13.15c-.33-3.28-2.26-5.84-5.62-5.84-3.11,0-5.3,2.39-5.76,5.84Z"/><path d="M181.29,488.47a2.51,2.51,0,0,1,2.52-2.56,2.54,2.54,0,0,1,2.56,2.56v2.27c1.18-2.77,3.36-4.87,5.59-4.87a2.36,2.36,0,0,1,2.52,2.52,2.39,2.39,0,0,1-2,2.44c-3.61.63-6.09,3.4-6.09,8.65V506a2.53,2.53,0,0,1-2.56,2.52,2.5,2.5,0,0,1-2.52-2.52Z"/><path d="M201.14,485.91a2.87,2.87,0,0,1,2.94,2.94v.38a3,3,0,0,1-5.92,0v-.38A2.88,2.88,0,0,1,201.14,485.91Zm0,16.43a2.86,2.86,0,0,1,2.94,2.89v.42a3,3,0,0,1-5.92,0v-.42A2.87,2.87,0,0,1,201.14,502.34Z"/><path d="M222.77,488.47a2.51,2.51,0,0,1,2.52-2.56,2.54,2.54,0,0,1,2.56,2.56v1c1.43-2,3.36-3.82,6.77-3.82a7,7,0,0,1,6.63,3.91,9,9,0,0,1,7.48-3.91c4.83,0,7.77,3.07,7.77,8.49V506a2.47,2.47,0,0,1-2.52,2.52,2.51,2.51,0,0,1-2.56-2.52V495.74c0-3.53-1.64-5.42-4.5-5.42s-4.74,1.93-4.74,5.5V506a2.55,2.55,0,0,1-5.09,0V495.7c0-3.45-1.68-5.38-4.49-5.38s-4.75,2.1-4.75,5.5V506a2.54,2.54,0,0,1-5.08,0Z"/><path d="M261,502v-.09c0-4.78,3.74-7.14,9.16-7.14a18.36,18.36,0,0,1,6,.93v-.55c0-3.15-1.93-4.83-5.5-4.83a13.35,13.35,0,0,0-4.92.88,2.6,2.6,0,0,1-.79.13,2.12,2.12,0,0,1-2.15-2.1,2.21,2.21,0,0,1,1.39-2,19,19,0,0,1,7.14-1.3c3.32,0,5.8.88,7.35,2.48s2.4,3.95,2.4,6.84v10.93a2.43,2.43,0,0,1-2.48,2.43,2.3,2.3,0,0,1-2.48-2.14v-.84a9,9,0,0,1-7.23,3.23C264.74,508.8,261,506.41,261,502Zm15.21-1.6v-1.51a14.24,14.24,0,0,0-5-.88c-3.28,0-5.21,1.38-5.21,3.69v.09c0,2.14,1.89,3.36,4.32,3.36C273.68,505.11,276.25,503.18,276.25,500.36Zm-6-17.68a1.88,1.88,0,0,1,.34-.93l2.39-3.69a2.3,2.3,0,0,1,2-1.22c1.34,0,3,.84,3,1.64a1.79,1.79,0,0,1-.71,1.26l-2.82,2.68a3.81,3.81,0,0,1-3,1.14C270.83,483.56,270.28,483.22,270.28,482.68Z"/><path d="M286.13,506.12a2,2,0,0,1-1-1.77,2,2,0,0,1,2.06-2.06,2.18,2.18,0,0,1,1.09.3,11.71,11.71,0,0,0,6.39,2.14c2.18,0,3.44-.92,3.44-2.39v-.09c0-1.72-2.35-2.31-4.95-3.11-3.28-.92-6.93-2.27-6.93-6.51v-.08c0-4.2,3.48-6.77,7.89-6.77a15.33,15.33,0,0,1,7,1.81,2.16,2.16,0,0,1,1.21,1.93,2,2,0,0,1-2.1,2.06,1.93,1.93,0,0,1-1-.25,12.18,12.18,0,0,0-5.21-1.51c-2,0-3.11.92-3.11,2.18v.09c0,1.63,2.39,2.31,5,3.15,3.23,1,6.89,2.47,6.89,6.47v.08c0,4.66-3.62,7-8.24,7A15.18,15.18,0,0,1,286.13,506.12Z"/><path d="M321.75,490.53h-.89a2.11,2.11,0,0,1-2.14-2.1,2.16,2.16,0,0,1,2.14-2.14h.89v-1.64a7.52,7.52,0,0,1,1.8-5.46,6.72,6.72,0,0,1,5-1.76,14.2,14.2,0,0,1,2.56.21,2.11,2.11,0,0,1-.37,4.2,7.1,7.1,0,0,0-1.06-.09c-1.93,0-2.94,1.05-2.94,3.36v1.22h3.95a2.1,2.1,0,1,1,0,4.2h-3.86V506a2.54,2.54,0,0,1-5.08,0Z"/><path d="M334.51,502v-.09c0-4.78,3.74-7.14,9.16-7.14a18.47,18.47,0,0,1,6,.93v-.55c0-3.15-1.94-4.83-5.51-4.83a13.26,13.26,0,0,0-4.91.88,2.72,2.72,0,0,1-.8.13,2.11,2.11,0,0,1-2.14-2.1,2.22,2.22,0,0,1,1.38-2,19,19,0,0,1,7.14-1.3c3.32,0,5.8.88,7.36,2.48s2.39,3.95,2.39,6.84v10.93a2.42,2.42,0,0,1-2.48,2.43,2.3,2.3,0,0,1-2.48-2.14v-.84a9,9,0,0,1-7.22,3.23C338.21,508.8,334.51,506.41,334.51,502Zm15.21-1.6v-1.51a14.2,14.2,0,0,0-5-.88c-3.28,0-5.21,1.38-5.21,3.69v.09c0,2.14,1.89,3.36,4.33,3.36C347.16,505.11,349.72,503.18,349.72,500.36Zm-6-17.68a1.88,1.88,0,0,1,.34-.93l2.39-3.69a2.31,2.31,0,0,1,2-1.22c1.35,0,3,.84,3,1.64a1.8,1.8,0,0,1-.72,1.26L348,482.42a3.84,3.84,0,0,1-3,1.14C344.3,483.56,343.75,483.22,343.75,482.68Z"/><path d="M359.1,497.38v-.09a11.45,11.45,0,0,1,11.56-11.59,11.27,11.27,0,0,1,7.77,2.77,2.46,2.46,0,0,1,.79,1.77,2.31,2.31,0,0,1-2.35,2.31,2.54,2.54,0,0,1-1.51-.51,7,7,0,0,0-4.75-1.89c-3.69,0-6.42,3.2-6.42,7.06v.08c0,3.95,2.73,7.1,6.63,7.1a7.39,7.39,0,0,0,5-2,2.14,2.14,0,0,1,3.57,1.68,2,2,0,0,1-.71,1.6,10.87,10.87,0,0,1-8.07,3.15A11.33,11.33,0,0,1,359.1,497.38Z"/><path d="M383.72,480.2c0-1.52,1.26-2.48,2.9-2.48s2.9,1,2.9,2.48v.25a2.93,2.93,0,0,1-5.8,0Zm.38,8.27a2.51,2.51,0,0,1,2.52-2.56,2.54,2.54,0,0,1,2.56,2.56V506a2.54,2.54,0,0,1-5.08,0Z"/><path d="M395.5,480a2.5,2.5,0,0,1,2.52-2.52,2.54,2.54,0,0,1,2.57,2.52v26a2.55,2.55,0,0,1-5.09,0Z"/><path d="M405.93,512.12a3.64,3.64,0,0,0,2.86-3.78,3,3,0,0,1-2.4-2.85v-.34a2.72,2.72,0,0,1,2.86-2.81c1.89,0,3,1.42,3,3.69v.46c0,2.86-.75,4.79-2.06,6.14a6.36,6.36,0,0,1-3.95,1.8,1.16,1.16,0,0,1-1.3-1.17A1.18,1.18,0,0,1,405.93,512.12Z"/><path d="M430.79,488.47a2.51,2.51,0,0,1,2.52-2.56,2.55,2.55,0,0,1,2.57,2.56v1c1.42-2,3.36-3.82,6.76-3.82a7.06,7.06,0,0,1,6.64,3.91,8.91,8.91,0,0,1,7.47-3.91c4.83,0,7.77,3.07,7.77,8.49V506a2.47,2.47,0,0,1-2.52,2.52,2.51,2.51,0,0,1-2.56-2.52V495.74c0-3.53-1.64-5.42-4.49-5.42s-4.75,1.93-4.75,5.5V506a2.54,2.54,0,0,1-5.08,0V495.7c0-3.45-1.68-5.38-4.5-5.38s-4.74,2.1-4.74,5.5V506a2.55,2.55,0,0,1-5.09,0Z"/><path d="M469.06,502v-.09c0-4.78,3.74-7.14,9.16-7.14a18.36,18.36,0,0,1,6,.93v-.55c0-3.15-1.93-4.83-5.5-4.83a13.26,13.26,0,0,0-4.91.88,2.72,2.72,0,0,1-.8.13,2.11,2.11,0,0,1-2.14-2.1,2.22,2.22,0,0,1,1.38-2,19,19,0,0,1,7.14-1.3c3.32,0,5.8.88,7.36,2.48s2.39,3.95,2.39,6.84v10.93a2.42,2.42,0,0,1-2.48,2.43,2.3,2.3,0,0,1-2.48-2.14v-.84a9,9,0,0,1-7.22,3.23C472.76,508.8,469.06,506.41,469.06,502Zm15.21-1.6v-1.51a14.2,14.2,0,0,0-5-.88c-3.28,0-5.21,1.38-5.21,3.69v.09c0,2.14,1.89,3.36,4.33,3.36C481.71,505.11,484.27,503.18,484.27,500.36Zm-6-17.68a1.88,1.88,0,0,1,.34-.93l2.39-3.69a2.31,2.31,0,0,1,2-1.22c1.34,0,3,.84,3,1.64a1.8,1.8,0,0,1-.72,1.26l-2.81,2.68a3.84,3.84,0,0,1-3,1.14C478.85,483.56,478.3,483.22,478.3,482.68Z"/><path d="M494.15,506.12a2,2,0,0,1-1-1.77,2,2,0,0,1,2.06-2.06,2.21,2.21,0,0,1,1.09.3,11.68,11.68,0,0,0,6.38,2.14c2.19,0,3.45-.92,3.45-2.39v-.09c0-1.72-2.36-2.31-5-3.11-3.28-.92-6.93-2.27-6.93-6.51v-.08c0-4.2,3.49-6.77,7.9-6.77a15.29,15.29,0,0,1,7,1.81,2.17,2.17,0,0,1,1.22,1.93,2,2,0,0,1-2.1,2.06,2,2,0,0,1-1-.25,12.18,12.18,0,0,0-5.21-1.51c-2,0-3.11.92-3.11,2.18v.09c0,1.63,2.4,2.31,5,3.15,3.24,1,6.89,2.47,6.89,6.47v.08c0,4.66-3.61,7-8.23,7A15.21,15.21,0,0,1,494.15,506.12Z"/><path d="M550.44,506a2.55,2.55,0,0,1-5.09,0v-1.38a8.88,8.88,0,0,1-7.56,4.15c-5.21,0-10.29-4.15-10.29-11.51v-.08c0-7.35,5-11.51,10.29-11.51a9.06,9.06,0,0,1,7.56,3.91V480a2.55,2.55,0,0,1,5.09,0Zm-17.82-8.82v.08c0,4.29,3,7.1,6.39,7.1s6.43-2.85,6.43-7.1v-.08c0-4.28-3-7.1-6.43-7.1S532.62,492.8,532.62,497.21Z"/><path d="M556.35,480.2c0-1.52,1.26-2.48,2.9-2.48s2.9,1,2.9,2.48v.25a2.93,2.93,0,0,1-5.8,0Zm.38,8.27a2.51,2.51,0,0,1,2.52-2.56,2.54,2.54,0,0,1,2.56,2.56V506a2.54,2.54,0,0,1-5.08,0Z"/><path d="M576.63,508.76h-.25a3.16,3.16,0,0,1-2.9-2.22l-7.4-16.93a4.15,4.15,0,0,1-.29-1.26,2.57,2.57,0,0,1,5-.59l5.71,14.7,5.8-14.78a2.53,2.53,0,0,1,2.4-1.77,2.42,2.42,0,0,1,2.47,2.44,3,3,0,0,1-.29,1.22l-7.39,17A3.22,3.22,0,0,1,576.63,508.76Z"/><path d="M600.83,508.85a11.07,11.07,0,0,1-11.39-11.51v-.09c0-6.34,4.5-11.55,10.84-11.55,7.06,0,10.54,5.8,10.54,10.92a2.38,2.38,0,0,1-2.39,2.44H594.52a6.2,6.2,0,0,0,6.39,5.63,8,8,0,0,0,5.25-1.93,1.86,1.86,0,0,1,1.3-.47,2,2,0,0,1,2,2.06,2.27,2.27,0,0,1-.67,1.56A11.43,11.43,0,0,1,600.83,508.85Zm5-13.15c-.34-3.28-2.27-5.84-5.63-5.84-3.11,0-5.3,2.39-5.76,5.84Z"/><path d="M615.7,488.47a2.51,2.51,0,0,1,2.52-2.56,2.55,2.55,0,0,1,2.57,2.56v2.27c1.17-2.77,3.36-4.87,5.58-4.87a2.36,2.36,0,0,1,2.52,2.52,2.39,2.39,0,0,1-2,2.44c-3.62.63-6.09,3.4-6.09,8.65V506a2.54,2.54,0,0,1-2.57,2.52A2.5,2.5,0,0,1,615.7,506Z"/><path d="M634.57,502.21V490.53h-.85a2.19,2.19,0,0,1,0-4.37h.85v-3.78a2.54,2.54,0,0,1,5.08,0v3.78h4a2.19,2.19,0,1,1,0,4.37h-4v10.88c0,2,1,2.77,2.73,2.77a12.6,12.6,0,0,0,1.26-.12,2.14,2.14,0,0,1,2.14,2.1,2.18,2.18,0,0,1-1.34,2,10.13,10.13,0,0,1-3.49.59C637.21,508.72,634.57,507.08,634.57,502.21Z"/><path d="M649.65,480.2c0-1.52,1.26-2.48,2.9-2.48s2.9,1,2.9,2.48v.25a2.93,2.93,0,0,1-5.8,0Zm.38,8.27a2.51,2.51,0,0,1,2.52-2.56,2.54,2.54,0,0,1,2.56,2.56V506a2.54,2.54,0,0,1-5.08,0Z"/><path d="M683,506a2.55,2.55,0,0,1-5.09,0v-1.38a8.86,8.86,0,0,1-7.56,4.15c-5.21,0-10.29-4.15-10.29-11.51v-.08c0-7.35,5-11.51,10.29-11.51a9.06,9.06,0,0,1,7.56,3.91V480a2.55,2.55,0,0,1,5.09,0Zm-17.81-8.82v.08c0,4.29,2.94,7.1,6.38,7.1s6.43-2.85,6.43-7.1v-.08c0-4.28-3-7.1-6.43-7.1S665.23,492.8,665.23,497.21Z"/><path d="M687.92,497.38v-.09a11.83,11.83,0,0,1,23.65-.08v.08a11.6,11.6,0,0,1-11.89,11.56A11.47,11.47,0,0,1,687.92,497.38Zm18.56,0v-.09a6.85,6.85,0,0,0-6.8-7.14c-4.08,0-6.68,3.2-6.68,7.06v.08a6.83,6.83,0,0,0,6.76,7.1C703.88,504.39,706.48,501.2,706.48,497.38Z"/></g></g></svg>