<svg xmlns="http://www.w3.org/2000/svg" viewBox="0 0 919.69 188.53"><defs><style>.cls-1,.cls-5{fill:#fff;}.cls-1{stroke:#fff;stroke-miterlimit:10;stroke-width:3px;}.cls-2{fill:#ff0;}.cls-3{fill:red;}.cls-4{fill:#5b5603;}</style></defs><g id="Capa_2" data-name="Capa 2"><g id="Capa_1-2" data-name="Capa 1"><path class="cls-1" d="M102.49,161.91H71.13a9.83,9.83,0,0,1-9.82-9.82V139.25A18.81,18.81,0,0,0,54.51,125a50,50,0,0,1,32.3-88.16h.11a50,50,0,0,1,31.75,88.53,17.94,17.94,0,0,0-6.36,13.92v12.83A9.83,9.83,0,0,1,102.49,161.91Z"/><path class="cls-2" d="M131.77,85a44.88,44.88,0,0,1-16.29,36.52,23,23,0,0,0-8.17,17.77v12.83a4.82,4.82,0,0,1-4.82,4.82H71.13a4.82,4.82,0,0,1-4.82-4.82V139.26a23.76,23.76,0,0,0-8.57-18.1,45,45,0,1,1,74-36.19Z"/><path d="M86.81,41.81h.1a45,45,0,0,1,28.57,79.68,23,23,0,0,0-8.17,17.77v12.83a4.82,4.82,0,0,1-4.82,4.82H71.13a4.82,4.82,0,0,1-4.82-4.82V139.26a23.76,23.76,0,0,0-8.57-18.1A45,45,0,0,1,86.81,41.81m0-4h0a49,49,0,0,0-31.65,86.4,19.81,19.81,0,0,1,7.15,15v12.83a8.83,8.83,0,0,0,8.82,8.82h31.36a8.83,8.83,0,0,0,8.82-8.82V139.26A18.94,18.94,0,0,1,118,124.57,49,49,0,0,0,86.92,37.81Z"/><path d="M105.34,170.35H68.28a2,2,0,0,1,0-4h37.06a2,2,0,0,1,0,4Z"/><path d="M102.78,179.44H70.84a2,2,0,0,1,0-4h31.94a2,2,0,1,1,0,4Z"/><path d="M100.21,188.53H73.41a2,2,0,0,1,0-4h26.8a2,2,0,1,1,0,4Z"/><path class="cls-3" d="M112.89,110.64a35,35,0,0,1-53-1c.46-.08,15.3-2.47,25.28,2h0C98.88,107.9,112.89,110.64,112.89,110.64Z"/><path class="cls-4" d="M119.81,99a35.06,35.06,0,0,1-6.92,11.66s-14-2.74-27.76,1h0c-10-4.49-24.82-2.1-25.28-2h0a35,35,0,0,1-6-10.62Z"/><path d="M112,83.05a2.64,2.64,0,0,1-.73-.11L97.38,78.75a2.5,2.5,0,0,1-.57-4.54l13.88-8.38a2.5,2.5,0,0,1,2.59,4.27l-9.07,5.48,8.5,2.57a2.5,2.5,0,0,1-.72,4.9Z"/><path d="M61.63,83.05a2.5,2.5,0,0,1-.72-4.9l8.51-2.57L60.34,70.1a2.5,2.5,0,0,1,2.59-4.27l13.88,8.38a2.5,2.5,0,0,1-.57,4.54L62.36,82.94A2.64,2.64,0,0,1,61.63,83.05Z"/><path d="M86.81,123.81A36.55,36.55,0,0,1,52.4,99.48a1.46,1.46,0,0,1,.19-1.37,1.5,1.5,0,0,1,1.22-.63h66a1.53,1.53,0,0,1,1.23.63,1.49,1.49,0,0,1,.18,1.37A36.55,36.55,0,0,1,86.81,123.81ZM56,100.48a33.51,33.51,0,0,0,61.62,0Z"/><path d="M89.47,115.85a1.51,1.51,0,0,1-1-.37c-8.67-7.59-28.21-4.44-28.4-4.4a1.52,1.52,0,0,1-1.73-1.24,1.49,1.49,0,0,1,1.23-1.72c.86-.15,21.13-3.43,30.88,5.1a1.5,1.5,0,0,1-1,2.63Z"/><path d="M85.12,113.12a1.5,1.5,0,0,1-.39-3c13.92-3.77,27.86-1.11,28.45-1a1.5,1.5,0,0,1-.57,3c-.14,0-13.87-2.63-27.1.95A1.74,1.74,0,0,1,85.12,113.12Z"/><path d="M145.1,90.31a3.5,3.5,0,0,1,0-7h24a3.5,3.5,0,0,1,0,7Z"/><path class="cls-5" d="M169.12,84.31a2.5,2.5,0,0,1,0,5h-24a2.5,2.5,0,0,1,0-5h24m0-2h-24a4.5,4.5,0,0,0,0,9h24a4.5,4.5,0,0,0,0-9Z"/><path d="M4.5,90.31a3.5,3.5,0,0,1,0-7h24a3.5,3.5,0,1,1,0,7Z"/><path class="cls-5" d="M28.52,84.31a2.5,2.5,0,0,1,0,5H4.5a2.5,2.5,0,0,1,0-5h24m0-2H4.5a4.5,4.5,0,0,0,0,9h24a4.5,4.5,0,1,0,0-9Z"/><path d="M86.81,32a3.5,3.5,0,0,1-3.5-3.5V4.5a3.5,3.5,0,0,1,7,0v24A3.5,3.5,0,0,1,86.81,32Z"/><path class="cls-5" d="M86.81,2a2.5,2.5,0,0,1,2.5,2.5v24a2.5,2.5,0,0,1-5,0V4.5A2.5,2.5,0,0,1,86.81,2m0-2a4.51,4.51,0,0,0-4.5,4.5v24a4.5,4.5,0,0,0,9,0V4.5A4.51,4.51,0,0,0,86.81,0Z"/><path d="M137.3,61.16a3.5,3.5,0,0,1-1.75-6.53l20.79-12a3.5,3.5,0,0,1,3.5,6.06l-20.79,12A3.48,3.48,0,0,1,137.3,61.16Z"/><path class="cls-5" d="M158.09,43.15a2.5,2.5,0,0,1,1.25,4.66l-20.79,12a2.52,2.52,0,0,1-3.42-.92,2.49,2.49,0,0,1,.92-3.41l20.79-12a2.54,2.54,0,0,1,1.25-.33m0-2h0a4.54,4.54,0,0,0-2.25.6l-20.79,12a4.5,4.5,0,0,0,4.5,7.8l20.79-12a4.5,4.5,0,0,0-2.25-8.4Z"/><path d="M116,39.82a3.45,3.45,0,0,1-1.75-.47,3.5,3.5,0,0,1-1.28-4.78l12-20.79a3.5,3.5,0,0,1,6.06,3.5L119,38.07A3.5,3.5,0,0,1,116,39.82Z"/><path class="cls-5" d="M128,13a2.54,2.54,0,0,1,1.25.33,2.49,2.49,0,0,1,.91,3.42l-12,20.79A2.49,2.49,0,0,1,116,38.82a2.45,2.45,0,0,1-1.25-.34,2.49,2.49,0,0,1-.92-3.41l12-20.79A2.52,2.52,0,0,1,128,13m0-2h0a4.51,4.51,0,0,0-3.9,2.25l-12,20.79a4.5,4.5,0,0,0,7.8,4.5l12-20.79A4.5,4.5,0,0,0,128,11Z"/><path d="M36.32,61.16a3.48,3.48,0,0,1-1.75-.47l-20.79-12a3.5,3.5,0,1,1,3.5-6.06l20.79,12a3.5,3.5,0,0,1-1.75,6.53Z"/><path class="cls-5" d="M15.53,43.15a2.54,2.54,0,0,1,1.25.33l20.79,12a2.49,2.49,0,0,1,.92,3.41,2.52,2.52,0,0,1-3.42.92l-20.79-12a2.5,2.5,0,0,1,1.25-4.66m0-2h0a4.5,4.5,0,0,0-2.25,8.4l20.79,12a4.5,4.5,0,1,0,4.5-7.8l-20.79-12a4.54,4.54,0,0,0-2.25-.6Z"/><path d="M57.65,39.82a3.5,3.5,0,0,1-3-1.75l-12-20.79a3.5,3.5,0,1,1,6.06-3.5l12,20.79a3.5,3.5,0,0,1-1.28,4.78A3.45,3.45,0,0,1,57.65,39.82Z"/><path class="cls-5" d="M45.65,13a2.52,2.52,0,0,1,2.17,1.25l12,20.79a2.49,2.49,0,0,1-.92,3.41,2.45,2.45,0,0,1-1.25.34,2.49,2.49,0,0,1-2.16-1.25l-12-20.79a2.5,2.5,0,0,1,.91-3.42A2.54,2.54,0,0,1,45.65,13m0-2h0a4.5,4.5,0,0,0-3.9,6.75l12,20.79a4.5,4.5,0,1,0,7.8-4.5l-12-20.79A4.51,4.51,0,0,0,45.65,11Z"/><path d="M297.25,133.35a7.46,7.46,0,0,1-7.59-7.48V99.41c0-5.9-1.83-12.93-10.55-12.93-7,0-11.21,4.91-11.21,13.14v26.25a7.54,7.54,0,0,1-15.07,0V99.3c0-8.15-3.84-12.82-10.55-12.82s-11.21,5.16-11.21,13.14v26.25a7.53,7.53,0,0,1-15.06,0V80.72a7.53,7.53,0,0,1,15.06-.21c3.42-4.06,8.37-7.91,16.39-7.91,7.61,0,13.66,3.26,17.22,9.23,5.1-6.21,11.35-9.23,19.07-9.23,13.14,0,21,8.53,21,22.81v30.46A7.4,7.4,0,0,1,297.25,133.35Z"/><path class="cls-5" d="M283.75,73.6c12.42,0,20,7.88,20,21.81v30.46a6.37,6.37,0,0,1-6.48,6.48,6.46,6.46,0,0,1-6.59-6.48V99.41c0-9.07-4.21-13.93-11.55-13.93-7.13,0-12.21,5-12.21,14.15v26.24a6.54,6.54,0,0,1-13.07,0V99.3c0-8.85-4.32-13.82-11.55-13.82s-12.21,5.4-12.21,14.15v26.24a6.53,6.53,0,0,1-13.06,0V80.72a6.44,6.44,0,0,1,6.48-6.58,6.53,6.53,0,0,1,6.58,6.58v2.71c3.68-5.08,8.64-9.83,17.39-9.83,8.21,0,14,4,17.07,10,4.53-6,10.58-10,19.22-10m0-2a24.23,24.23,0,0,0-19,8.56c-3.81-5.48-10-8.56-17.33-8.56a20.91,20.91,0,0,0-15.73,6.68A8.53,8.53,0,0,0,215,80.72v45.15a8.53,8.53,0,0,0,17.06,0V99.63c0-7.5,3.91-12.15,10.21-12.15,3.57,0,9.55,1.53,9.55,11.82v26.57a8.54,8.54,0,0,0,17.07,0V99.63c0-7.61,3.82-12.15,10.21-12.15,4.36,0,9.55,2.07,9.55,11.93v26.46a8.54,8.54,0,0,0,17.07,0V95.41c0-14.91-8.22-23.81-22-23.81Z"/><path d="M344.24,134.11c-17.54,0-30.27-12.87-30.27-30.6v-.21c0-17.51,12.41-30.7,28.87-30.7,18.25,0,28.11,15,28.11,29.08a7.14,7.14,0,0,1-7.16,7.26H329.24c1.61,7.73,7.35,12.47,15.22,12.47a19.55,19.55,0,0,0,12.86-4.74,5.93,5.93,0,0,1,4-1.41,6.17,6.17,0,0,1,6.19,6.29,6.65,6.65,0,0,1-2,4.7C359.56,131.55,352.63,134.11,344.24,134.11ZM356.07,98.3c-1-6.48-4.95-13-13.34-13-6.91,0-12.17,5.07-13.63,13Z"/><path class="cls-5" d="M342.84,73.6C361,73.6,370,88.5,370,101.68a6.11,6.11,0,0,1-6.16,6.26H328c1.4,9.29,8,14.47,16.42,14.47a20.5,20.5,0,0,0,13.5-5,4.83,4.83,0,0,1,3.35-1.19,5.14,5.14,0,0,1,5.18,5.29,5.74,5.74,0,0,1-1.73,4c-5.18,4.64-11.66,7.56-20.52,7.56-16.52,0-29.27-12-29.27-29.6v-.21c0-16.31,11.56-29.7,27.87-29.7M327.93,99.3H357.2c-.86-8.42-5.83-15-14.47-15-8,0-13.61,6.16-14.8,15m14.91-27.7A28.82,28.82,0,0,0,321.31,81,32.86,32.86,0,0,0,313,103.3v.21c0,18.31,13.15,31.6,31.27,31.6,8.64,0,15.79-2.64,21.86-8.07l0,0,0,0a7.64,7.64,0,0,0,2.31-5.41,7.16,7.16,0,0,0-7.18-7.29,6.84,6.84,0,0,0-4.58,1.61h0l0,0a18.36,18.36,0,0,1-12.23,4.51c-7,0-12.13-3.86-14-10.47h33.29a8.13,8.13,0,0,0,8.16-8.26c0-14.58-10.21-30.08-29.11-30.08Zm-12.5,25.7c1.65-6.76,6.34-11,12.39-11,6.32,0,10.75,4.07,12.15,11Z"/><path d="M461.77,133.35a7.46,7.46,0,0,1-7.59-7.48V99.41c0-5.9-1.83-12.93-10.56-12.93-7,0-11.2,4.91-11.2,13.14v26.25a7.54,7.54,0,0,1-15.07,0V99.3c0-8.15-3.85-12.82-10.56-12.82s-11.2,5.16-11.2,13.14v26.25a7.54,7.54,0,0,1-15.07,0V80.72a7.54,7.54,0,0,1,15.07-.21C399,76.45,404,72.6,412,72.6c7.6,0,13.66,3.26,17.21,9.23,5.1-6.21,11.36-9.23,19.08-9.23,13.13,0,21,8.53,21,22.81v30.46A7.41,7.41,0,0,1,461.77,133.35Z"/><path class="cls-5" d="M448.27,73.6c12.42,0,20,7.88,20,21.81v30.46a6.37,6.37,0,0,1-6.48,6.48,6.45,6.45,0,0,1-6.59-6.48V99.41c0-9.07-4.21-13.93-11.56-13.93-7.13,0-12.2,5-12.2,14.15v26.24a6.54,6.54,0,0,1-13.07,0V99.3c0-8.85-4.32-13.82-11.56-13.82s-12.2,5.4-12.2,14.15v26.24a6.54,6.54,0,0,1-13.07,0V80.72A6.45,6.45,0,0,1,388,74.14a6.54,6.54,0,0,1,6.59,6.58v2.71c3.67-5.08,8.64-9.83,17.39-9.83,8.2,0,14,4,17.06,10,4.54-6,10.59-10,19.23-10m0-2a24.26,24.26,0,0,0-19,8.56c-3.81-5.48-10-8.56-17.32-8.56a20.89,20.89,0,0,0-15.73,6.68,8.54,8.54,0,0,0-16.73,2.44v45.15a8.54,8.54,0,0,0,17.07,0V99.63c0-7.5,3.91-12.15,10.2-12.15,3.57,0,9.56,1.53,9.56,11.82v26.57a8.54,8.54,0,0,0,17.07,0V99.63c0-7.61,3.81-12.15,10.2-12.15,4.36,0,9.56,2.07,9.56,11.93v26.46a8.54,8.54,0,0,0,17.07,0V95.41c0-14.91-8.22-23.81-22-23.81Z"/><path d="M508.76,134.11c-17.54,0-30.27-12.87-30.27-30.6v-.21c0-17.51,12.41-30.7,28.86-30.7,18.26,0,28.11,15,28.11,29.08a7.13,7.13,0,0,1-7.16,7.26H493.75c1.62,7.73,7.36,12.47,15.22,12.47a19.59,19.59,0,0,0,12.87-4.74,5.91,5.91,0,0,1,4-1.41,6.16,6.16,0,0,1,6.18,6.29,6.61,6.61,0,0,1-2,4.7A30.37,30.37,0,0,1,508.76,134.11ZM520.58,98.3c-1-6.48-4.94-13-13.34-13-6.91,0-12.16,5.07-13.62,13Z"/><path class="cls-5" d="M507.35,73.6c18.15,0,27.11,14.9,27.11,28.08a6.11,6.11,0,0,1-6.16,6.26H492.56c1.4,9.29,8,14.47,16.41,14.47a20.5,20.5,0,0,0,13.5-5,4.85,4.85,0,0,1,3.35-1.19,5.14,5.14,0,0,1,5.18,5.29,5.73,5.73,0,0,1-1.72,4c-5.19,4.64-11.67,7.56-20.52,7.56-16.53,0-29.27-12-29.27-29.6v-.21c0-16.31,11.55-29.7,27.86-29.7m-14.9,25.7h29.27c-.87-8.42-5.84-15-14.48-15-8,0-13.6,6.16-14.79,15m14.9-27.7A28.8,28.8,0,0,0,485.83,81a32.86,32.86,0,0,0-8.34,22.32v.21c0,18.31,13.15,31.6,31.27,31.6,8.64,0,15.79-2.64,21.85-8.07l0,0,0,0a7.64,7.64,0,0,0,2.31-5.41,7.15,7.15,0,0,0-7.18-7.29,6.88,6.88,0,0,0-4.58,1.61h0l0,0A18.35,18.35,0,0,1,509,120.41c-7.05,0-12.13-3.86-14-10.47H528.3a8.12,8.12,0,0,0,8.16-8.26c0-14.58-10.2-30.08-29.11-30.08Zm-12.5,25.7c1.65-6.76,6.34-11,12.39-11,6.33,0,10.76,4.07,12.15,11Z"/><path d="M572.78,134.11c-17.52,0-31.24-13.4-31.24-30.49v-.21c0-17.28,13.81-30.81,31.45-30.81S604.34,86,604.34,103.19v.22C604.34,120.62,590.48,134.11,572.78,134.11Zm0-48.07c-9.37,0-16.18,7.21-16.18,17.15v.22c0,9.67,7.2,17.25,16.39,17.25,9.44,0,16.28-7.17,16.28-17v-.21C589.27,93.51,582.18,86,572.78,86Z"/><path class="cls-5" d="M573,73.6c17.5,0,30.35,13.28,30.35,29.59v.22c0,16.2-13,29.7-30.56,29.7-17.39,0-30.24-13.29-30.24-29.49v-.21c0-16.31,13-29.81,30.45-29.81m0,48.06c10.59,0,17.28-8.21,17.28-18v-.21c0-10-7.23-18.36-17.49-18.36-10.48,0-17.18,8.2-17.18,18.14v.22c0,9.93,7.24,18.25,17.39,18.25m0-50.06c-18.2,0-32.45,14-32.45,31.81v.21c0,17.66,14.16,31.49,32.24,31.49,18.26,0,32.56-13.93,32.56-31.7v-.22c0-17.72-14.21-31.59-32.35-31.59Zm0,48.06c-8.77,0-15.39-7-15.39-16.25v-.22c0-9.36,6.39-16.14,15.18-16.14s15.49,7,15.49,16.36v.21c0,8-5.25,16-15.28,16Z"/><path d="M632.67,133.78c-11.55,0-17.41-6-17.41-17.74V87H614.1a6.62,6.62,0,1,1,0-13.23h1.16V65.06a7.54,7.54,0,0,1,15.07,0v8.73h9.25a6.62,6.62,0,1,1,0,13.23h-9.25v27c0,4.24,1.85,6.13,6,6.13a15.82,15.82,0,0,0,2.35-.22,6.19,6.19,0,0,1,7.39,6.29,6.58,6.58,0,0,1-4.07,6A26.92,26.92,0,0,1,632.67,133.78Z"/><path class="cls-5" d="M622.85,58.58a6.5,6.5,0,0,1,6.48,6.48v9.72h10.26a5.62,5.62,0,1,1,0,11.24H629.33v28c0,5.08,2.59,7.13,7,7.13a30.67,30.67,0,0,0,3.24-.33,5.51,5.51,0,0,1,5.5,5.4,5.63,5.63,0,0,1-3.45,5.08,26.07,26.07,0,0,1-9,1.51c-9.61,0-16.41-4.21-16.41-16.74V86H614.1a5.62,5.62,0,0,1,0-11.24h2.16V65.06a6.52,6.52,0,0,1,6.59-6.48m0-2a8.55,8.55,0,0,0-8.59,8.48v7.72h-.16a7.62,7.62,0,0,0,0,15.24h.16v28c0,12.26,6.37,18.74,18.41,18.74a28.22,28.22,0,0,0,9.62-1.62l.06,0,0,0a7.6,7.6,0,0,0,4.69-6.93,7.46,7.46,0,0,0-7.5-7.4,6.61,6.61,0,0,0-1.05.12,14,14,0,0,1-2.19.21c-3.62,0-5-1.44-5-5.13V88h8.26a7.62,7.62,0,1,0,0-15.24h-8.26V65.06a8.5,8.5,0,0,0-8.48-8.48Z"/><path d="M679.39,134.11c-17.54,0-30.27-12.87-30.27-30.6v-.21c0-17.51,12.41-30.7,28.87-30.7,18.26,0,28.11,15,28.11,29.08a7.13,7.13,0,0,1-7.16,7.26H664.39c1.62,7.73,7.36,12.47,15.22,12.47a19.55,19.55,0,0,0,12.86-4.74,6,6,0,0,1,4-1.41,6.16,6.16,0,0,1,6.18,6.29,6.65,6.65,0,0,1-2,4.7C694.71,131.55,687.78,134.11,679.39,134.11ZM691.22,98.3c-1-6.48-4.94-13-13.34-13-6.91,0-12.16,5.07-13.62,13Z"/><path class="cls-5" d="M678,73.6c18.14,0,27.11,14.9,27.11,28.08a6.11,6.11,0,0,1-6.16,6.26H663.19c1.41,9.29,8,14.47,16.42,14.47a20.5,20.5,0,0,0,13.5-5,4.85,4.85,0,0,1,3.35-1.19,5.14,5.14,0,0,1,5.18,5.29,5.7,5.7,0,0,1-1.73,4c-5.18,4.64-11.66,7.56-20.52,7.56-16.52,0-29.26-12-29.26-29.6v-.21c0-16.31,11.55-29.7,27.86-29.7m-14.9,25.7h29.26c-.86-8.42-5.83-15-14.47-15-8,0-13.61,6.16-14.79,15M678,71.6A28.8,28.8,0,0,0,656.47,81a32.86,32.86,0,0,0-8.34,22.32v.21c0,18.31,13.15,31.6,31.26,31.6,8.65,0,15.8-2.64,21.86-8.07l0,0,0,0a7.64,7.64,0,0,0,2.31-5.41,7.15,7.15,0,0,0-7.18-7.29,6.88,6.88,0,0,0-4.58,1.61h0l0,0a18.59,18.59,0,0,1-12.23,4.51c-7.05,0-12.13-3.86-14-10.47h33.28a8.12,8.12,0,0,0,8.16-8.26C707.1,87.1,696.9,71.6,678,71.6Zm-12.5,25.7c1.65-6.76,6.34-11,12.39-11,6.33,0,10.76,4.07,12.15,11Z"/><path d="M742.66,134.11a30.17,30.17,0,0,1-30.49-30.49v-.21A30.43,30.43,0,0,1,742.88,72.6c8.27,0,14.83,2.34,20.63,7.37a7.25,7.25,0,0,1,2.4,5.29,6.92,6.92,0,0,1-7,6.94,7.67,7.67,0,0,1-4.49-1.49c-2.77-2.33-6.28-4.67-11.6-4.67-8.71,0-15.53,7.54-15.53,17.15v.22c0,9.83,6.91,17.25,16.07,17.25,4.36,0,8.2-1.54,12.1-4.84a6.5,6.5,0,0,1,10.82,5.08,6.08,6.08,0,0,1-2.2,4.88C758,131.52,751.43,134.11,742.66,134.11Z"/><path class="cls-5" d="M742.88,73.6c9,0,15.12,2.91,20,7.12a6.23,6.23,0,0,1,2,4.54,6,6,0,0,1-6,5.94A6.74,6.74,0,0,1,755,89.91c-3.35-2.81-7-4.86-12.2-4.86-9.51,0-16.53,8.2-16.53,18.14v.22c0,10.15,7,18.25,17.07,18.25,5.18,0,9.18-2,12.74-5.08a5.51,5.51,0,0,1,9.18,4.32A5.13,5.13,0,0,1,763.4,125c-5.08,4.86-11.24,8.1-20.74,8.1a29.11,29.11,0,0,1-29.48-29.49v-.21a29.43,29.43,0,0,1,29.7-29.81m0-2a31.41,31.41,0,0,0-31.7,31.81v.21a31.14,31.14,0,0,0,31.48,31.49c8.9,0,15.91-2.74,22.07-8.61a7,7,0,0,0,2.5-5.6,7.67,7.67,0,0,0-7.61-7.72,7.78,7.78,0,0,0-4.87,1.88c-3.74,3.18-7.27,4.6-11.44,4.6-8.73,0-15.07-6.84-15.07-16.25v-.22c0-9,6.38-16.14,14.53-16.14,4,0,7.25,1.31,10.92,4.39l0,0,0,0a8.69,8.69,0,0,0,5.09,1.7,7.91,7.91,0,0,0,8-7.94,8.19,8.19,0,0,0-2.74-6c-5.92-5.13-12.88-7.62-21.29-7.62Z"/><path d="M821,133.35a7.46,7.46,0,0,1-7.59-7.48V99.41c0-8.34-4-12.93-11.2-12.93s-11.85,5.16-11.85,13.14v26.25a7.54,7.54,0,0,1-15.07,0V80.72a7.54,7.54,0,0,1,15.07-.14,21,21,0,0,1,16.82-8c13.14,0,21.3,8.74,21.3,22.81v30.46A7.4,7.4,0,0,1,821,133.35Z"/><path class="cls-5" d="M807.18,73.6c12.85,0,20.3,8.64,20.3,21.81v30.46a6.37,6.37,0,0,1-6.48,6.48,6.46,6.46,0,0,1-6.59-6.48V99.41c0-8.86-4.42-13.93-12.2-13.93-7.56,0-12.85,5.29-12.85,14.15v26.24a6.54,6.54,0,0,1-13.07,0V80.72a6.45,6.45,0,0,1,6.48-6.58,6.54,6.54,0,0,1,6.59,6.58v2.81c3.67-5.29,9-9.93,17.82-9.93m0-2A21.62,21.62,0,0,0,791,78.34a8.54,8.54,0,0,0-16.75,2.38v45.15a8.54,8.54,0,0,0,17.07,0V99.63c0-7.5,4.16-12.15,10.85-12.15,4.66,0,10.2,2.07,10.2,11.93v26.46a8.54,8.54,0,0,0,17.07,0V95.41c0-14.69-8.54-23.81-22.3-23.81Z"/><path d="M848.4,133.35a7.41,7.41,0,0,1-7.48-7.48V80.72a7.54,7.54,0,1,1,15.07,0v45.15A7.46,7.46,0,0,1,848.4,133.35Zm0-65.77c-4.9,0-8.45-3.15-8.45-7.48v-.65c0-4.27,3.55-7.37,8.45-7.37s8.45,3.1,8.45,7.37v.65C856.85,64.43,853.3,67.58,848.4,67.58Z"/><path class="cls-5" d="M848.4,53.08c4.21,0,7.45,2.48,7.45,6.37v.65c0,3.88-3.24,6.48-7.45,6.48S841,64,841,60.1v-.65c0-3.89,3.24-6.37,7.45-6.37m0,21.06A6.54,6.54,0,0,1,855,80.72v45.15a6.54,6.54,0,0,1-13.07,0V80.72a6.45,6.45,0,0,1,6.48-6.58m0-23.06c-5.48,0-9.45,3.52-9.45,8.37v.65c0,4.91,4,8.48,9.45,8.48s9.45-3.57,9.45-8.48v-.65c0-4.85-4-8.37-9.45-8.37Zm0,21.06a8.44,8.44,0,0,0-8.48,8.58v45.15a8.54,8.54,0,0,0,17.07,0V80.72a8.49,8.49,0,0,0-8.59-8.58Z"/><path d="M886.37,134c-10.21,0-21.19-5.82-21.19-18.61v-.21c0-12.13,9.17-19.36,24.54-19.36a48.5,48.5,0,0,1,14.34,2v0c0-9.44-7.15-11.42-13.15-11.42a32.9,32.9,0,0,0-12.27,2.2,8.29,8.29,0,0,1-2.42.39,6.46,6.46,0,0,1-6.51-6.4,6.69,6.69,0,0,1,4.21-6.11A49.64,49.64,0,0,1,892.64,73c8.58,0,15.36,2.31,19.61,6.67,4.27,4.16,6.44,10.32,6.44,18.3v28.09a7.23,7.23,0,0,1-7.37,7.26c-4,0-7.15-2.67-7.36-6.14A24.55,24.55,0,0,1,886.37,134Zm5.94-27.87c-7.87,0-12.39,3.1-12.39,8.51v.21c0,4.65,4,7.64,10.13,7.64,8.24,0,14.22-4.71,14.22-11.2V108.1A35.28,35.28,0,0,0,892.31,106.13Z"/><path class="cls-5" d="M892.64,74c8.53,0,14.9,2.27,18.9,6.37,4.21,4.11,6.15,10.15,6.15,17.61v28.08a6.22,6.22,0,0,1-6.37,6.26c-3.78,0-6.37-2.59-6.37-5.51v-2.16c-3.89,4.65-9.83,8.32-18.58,8.32-10.69,0-20.19-6.16-20.19-17.61v-.21c0-12.31,9.61-18.36,23.54-18.36a47.81,47.81,0,0,1,15.34,2.37v-1.4c0-8.1-5-12.42-14.15-12.42a33.78,33.78,0,0,0-12.64,2.27,7.49,7.49,0,0,1-2,.32,5.44,5.44,0,0,1-5.51-5.4,5.68,5.68,0,0,1,3.57-5.18A48.73,48.73,0,0,1,892.64,74m-2.59,49.46c8.64,0,15.22-5,15.22-12.2V107.4a36.3,36.3,0,0,0-13-2.27c-8.42,0-13.39,3.57-13.39,9.51v.21c0,5.51,4.86,8.64,11.13,8.64M892.64,72a50.63,50.63,0,0,0-19.07,3.48,7.72,7.72,0,0,0-4.86,7,7.46,7.46,0,0,0,7.51,7.4,9.36,9.36,0,0,0,2.6-.4l.1,0,.09,0a31.94,31.94,0,0,1,11.9-2.13c7.55,0,11.61,3.07,12.1,9.13a49.82,49.82,0,0,0-13.29-1.68c-16,0-25.54,7.61-25.54,20.36v.21c0,11.55,9.12,19.61,22.19,19.61a25.78,25.78,0,0,0,17-5.87,8.51,8.51,0,0,0,16.36-3V98c0-8.25-2.26-14.65-6.74-19-4.44-4.56-11.47-7-20.31-7Zm-2.59,49.46c-4.21,0-9.13-1.74-9.13-6.64v-.21c0-6.78,8-7.51,11.39-7.51a34.68,34.68,0,0,1,11,1.68v2.48c0,5.91-5.56,10.2-13.22,10.2Z"/></g></g></svg>