<svg xmlns="http://www.w3.org/2000/svg" viewBox="0 0 334.23 243.66"><defs><style>.cls-1{fill:#ff0;}.cls-2{fill:red;}.cls-3{fill:#5b5603;}</style></defs><g id="Capa_2" data-name="Capa 2"><g id="Capa_1-2" data-name="Capa 1"><path class="cls-1" d="M211.9,83a44.88,44.88,0,0,1-16.29,36.52,23,23,0,0,0-8.17,17.77v12.83a4.82,4.82,0,0,1-4.82,4.82H151.26a4.82,4.82,0,0,1-4.82-4.82V137.26a23.76,23.76,0,0,0-8.57-18.1A45,45,0,1,1,211.9,83Z"/><path d="M166.94,39.81h.1a45,45,0,0,1,28.57,79.68,23,23,0,0,0-8.17,17.77v12.83a4.82,4.82,0,0,1-4.82,4.82H151.26a4.82,4.82,0,0,1-4.82-4.82V137.26a23.76,23.76,0,0,0-8.57-18.1,45,45,0,0,1,29.07-79.35m0-4h0a49,49,0,0,0-31.66,86.4,19.78,19.78,0,0,1,7.16,15v12.83a8.83,8.83,0,0,0,8.82,8.82h31.36a8.83,8.83,0,0,0,8.82-8.82V137.26a18.94,18.94,0,0,1,6.72-14.69,49,49,0,0,0-31.11-86.76Z"/><path d="M185.47,168.35H148.41a2,2,0,0,1,0-4h37.06a2,2,0,0,1,0,4Z"/><path d="M182.91,177.44H151a2,2,0,1,1,0-4h31.94a2,2,0,1,1,0,4Z"/><path d="M180.34,186.53h-26.8a2,2,0,0,1,0-4h26.8a2,2,0,0,1,0,4Z"/><path class="cls-2" d="M193,108.64a35,35,0,0,1-53.05-1c.46-.08,15.3-2.47,25.28,2h0C179,105.9,193,108.64,193,108.64Z"/><path class="cls-3" d="M199.94,97A35.06,35.06,0,0,1,193,108.64s-14-2.74-27.76,1h0c-10-4.49-24.82-2.1-25.28-2h0a35,35,0,0,1-6-10.62Z"/><path d="M192.12,81.05a2.64,2.64,0,0,1-.73-.11l-13.88-4.19a2.5,2.5,0,0,1-.57-4.54l13.88-8.38a2.5,2.5,0,0,1,2.59,4.27l-9.08,5.49,8.51,2.56a2.5,2.5,0,0,1-.72,4.9Z"/><path d="M141.76,81.05a2.5,2.5,0,0,1-.72-4.9l8.51-2.56-9.08-5.49a2.5,2.5,0,0,1,2.59-4.27l13.88,8.38a2.5,2.5,0,0,1-.57,4.54l-13.88,4.19A2.64,2.64,0,0,1,141.76,81.05Z"/><path d="M166.94,121.81a36.55,36.55,0,0,1-34.41-24.33,1.46,1.46,0,0,1,.19-1.37,1.5,1.5,0,0,1,1.22-.63h66a1.5,1.5,0,0,1,1.22.63,1.46,1.46,0,0,1,.19,1.37A36.55,36.55,0,0,1,166.94,121.81ZM136.13,98.48a33.51,33.51,0,0,0,61.62,0Z"/><path d="M169.6,113.85a1.51,1.51,0,0,1-1-.37c-8.67-7.59-28.21-4.43-28.4-4.4a1.5,1.5,0,1,1-.5-3c.86-.14,21.13-3.43,30.88,5.1a1.5,1.5,0,0,1-1,2.63Z"/><path d="M165.25,111.12a1.5,1.5,0,0,1-.39-3c13.92-3.76,27.86-1.11,28.45-1a1.5,1.5,0,0,1-.58,3c-.13,0-13.86-2.63-27.09.95A1.74,1.74,0,0,1,165.25,111.12Z"/><path d="M249.25,87.31h-24a2.5,2.5,0,1,1,0-5h24a2.5,2.5,0,0,1,0,5Z"/><path d="M108.65,87.31h-24a2.5,2.5,0,0,1,0-5h24a2.5,2.5,0,0,1,0,5Z"/><path d="M166.94,29a2.5,2.5,0,0,1-2.5-2.5V2.5a2.5,2.5,0,0,1,5,0v24A2.5,2.5,0,0,1,166.94,29Z"/><path d="M217.43,58.16a2.5,2.5,0,0,1-1.25-4.66l20.79-12a2.5,2.5,0,0,1,2.5,4.33l-20.79,12A2.54,2.54,0,0,1,217.43,58.16Z"/><path d="M196.09,36.82a2.54,2.54,0,0,1-1.25-.33,2.51,2.51,0,0,1-.92-3.42l12-20.79a2.5,2.5,0,0,1,4.33,2.5l-12,20.79A2.49,2.49,0,0,1,196.09,36.82Z"/><path d="M116.45,58.16a2.54,2.54,0,0,1-1.25-.33l-20.79-12a2.5,2.5,0,0,1,2.5-4.33l20.79,12a2.5,2.5,0,0,1-1.25,4.66Z"/><path d="M137.78,36.82a2.49,2.49,0,0,1-2.16-1.25l-12-20.79a2.5,2.5,0,0,1,4.33-2.5l12,20.79a2.51,2.51,0,0,1-.92,3.42A2.54,2.54,0,0,1,137.78,36.82Z"/><path d="M0,218.93a3.05,3.05,0,0,1,3.06-3.11,3.09,3.09,0,0,1,3.11,3.11v1.28c1.73-2.4,4.08-4.64,8.21-4.64a8.54,8.54,0,0,1,8.06,4.74,10.82,10.82,0,0,1,9.08-4.74c5.86,0,9.43,3.72,9.43,10.3v14.38a3,3,0,0,1-3.06,3.06,3.05,3.05,0,0,1-3.11-3.06v-12.5c0-4.28-2-6.57-5.46-6.57s-5.76,2.34-5.76,6.68v12.39a3.09,3.09,0,0,1-6.17,0V227.7c0-4.18-2-6.52-5.46-6.52s-5.76,2.55-5.76,6.68v12.39a3.05,3.05,0,0,1-3.11,3.06A3,3,0,0,1,0,240.25Z"/><path d="M60.41,243.66c-7.8,0-13.82-5.66-13.82-14v-.1c0-7.7,5.45-14,13.16-14,8.56,0,12.79,7,12.79,13.26a2.88,2.88,0,0,1-2.9,2.95H52.76a7.51,7.51,0,0,0,7.75,6.84,9.65,9.65,0,0,0,6.37-2.35,2.3,2.3,0,0,1,1.59-.56,2.43,2.43,0,0,1,2.44,2.5,2.66,2.66,0,0,1-.81,1.88A13.8,13.8,0,0,1,60.41,243.66Zm6.12-16c-.41-4-2.76-7.08-6.84-7.08-3.77,0-6.42,2.9-7,7.08Z"/><path d="M78.34,218.93a3.05,3.05,0,0,1,3.06-3.11,3.09,3.09,0,0,1,3.11,3.11v1.28c1.73-2.4,4.08-4.64,8.21-4.64a8.54,8.54,0,0,1,8.06,4.74,10.82,10.82,0,0,1,9.08-4.74c5.86,0,9.43,3.72,9.43,10.3v14.38a3,3,0,0,1-3.06,3.06,3.05,3.05,0,0,1-3.11-3.06v-12.5c0-4.28-2-6.57-5.46-6.57s-5.76,2.34-5.76,6.68v12.39a3.09,3.09,0,0,1-6.17,0V227.7c0-4.18-2-6.52-5.46-6.52s-5.76,2.55-5.76,6.68v12.39a3.09,3.09,0,0,1-6.17,0Z"/><path d="M138.75,243.66c-7.8,0-13.82-5.66-13.82-14v-.1c0-7.7,5.46-14,13.16-14,8.56,0,12.8,7,12.8,13.26a2.88,2.88,0,0,1-2.91,2.95H131.1a7.51,7.51,0,0,0,7.75,6.84,9.7,9.7,0,0,0,6.38-2.35,2.25,2.25,0,0,1,1.58-.56,2.43,2.43,0,0,1,2.44,2.5,2.66,2.66,0,0,1-.81,1.88A13.8,13.8,0,0,1,138.75,243.66Zm6.12-16c-.41-4-2.76-7.08-6.84-7.08-3.77,0-6.42,2.9-7,7.08Z"/><path d="M155,229.74v-.1a14.36,14.36,0,0,1,28.71-.1v.1a14.07,14.07,0,0,1-14.43,14A13.92,13.92,0,0,1,155,229.74Zm22.54,0v-.1c0-4.74-3.41-8.67-8.26-8.67s-8.11,3.88-8.11,8.57v.1a8.3,8.3,0,0,0,8.21,8.62C174.41,238.26,177.57,234.38,177.57,229.74Z"/><path d="M190.19,235.61V221.43h-1a2.65,2.65,0,1,1,0-5.3h1v-4.59a3.09,3.09,0,0,1,6.17,0v4.59h4.85a2.65,2.65,0,1,1,0,5.3h-4.85v13.21c0,2.4,1.23,3.36,3.32,3.36a15.21,15.21,0,0,0,1.53-.15,2.6,2.6,0,0,1,2.6,2.55,2.68,2.68,0,0,1-1.63,2.4,12.28,12.28,0,0,1-4.24.71C193.41,243.51,190.19,241.52,190.19,235.61Z"/><path d="M220.38,243.66c-7.8,0-13.82-5.66-13.82-14v-.1c0-7.7,5.46-14,13.16-14,8.56,0,12.8,7,12.8,13.26a2.88,2.88,0,0,1-2.91,2.95H212.73a7.51,7.51,0,0,0,7.75,6.84,9.65,9.65,0,0,0,6.37-2.35,2.3,2.3,0,0,1,1.59-.56,2.43,2.43,0,0,1,2.44,2.5,2.66,2.66,0,0,1-.81,1.88A13.8,13.8,0,0,1,220.38,243.66Zm6.12-16c-.41-4-2.76-7.08-6.84-7.08-3.77,0-6.42,2.9-7,7.08Z"/><path d="M236.66,229.74v-.1a13.9,13.9,0,0,1,14-14.07,13.61,13.61,0,0,1,9.43,3.36,2.92,2.92,0,0,1,1,2.14,2.82,2.82,0,0,1-2.86,2.81,3.19,3.19,0,0,1-1.83-.61,8.53,8.53,0,0,0-5.76-2.3c-4.49,0-7.81,3.88-7.81,8.57v.1c0,4.79,3.32,8.62,8.06,8.62a9,9,0,0,0,6-2.4,2.72,2.72,0,0,1,1.68-.66,2.67,2.67,0,0,1,2.65,2.7,2.4,2.4,0,0,1-.86,1.94,13.22,13.22,0,0,1-9.8,3.82A13.75,13.75,0,0,1,236.66,229.74Z"/><path d="M266.8,218.93a3,3,0,0,1,3.06-3.11,3.09,3.09,0,0,1,3.11,3.11v1.33a9.75,9.75,0,0,1,8.41-4.69c6.07,0,9.59,4.08,9.59,10.3v14.38a3,3,0,0,1-3.06,3.06,3.05,3.05,0,0,1-3.11-3.06v-12.5c0-4.18-2.09-6.57-5.76-6.57s-6.07,2.49-6.07,6.68v12.39a3.09,3.09,0,0,1-6.17,0Z"/><path d="M297.66,208.89c0-1.84,1.53-3,3.52-3s3.52,1.17,3.52,3v.3c0,1.84-1.53,3.06-3.52,3.06s-3.52-1.22-3.52-3.06Zm.46,10a3.05,3.05,0,0,1,3.06-3.11,3.09,3.09,0,0,1,3.11,3.11v21.32a3.09,3.09,0,0,1-6.17,0Z"/><path d="M309.91,235.3v-.1c0-5.81,4.54-8.67,11.12-8.67a22.61,22.61,0,0,1,7.24,1.12V227c0-3.83-2.35-5.86-6.68-5.86a15.84,15.84,0,0,0-6,1.07,3.53,3.53,0,0,1-1,.15,2.57,2.57,0,0,1-2.6-2.55,2.71,2.71,0,0,1,1.68-2.45,23.06,23.06,0,0,1,8.67-1.58c4,0,7,1.07,8.93,3s2.9,4.79,2.9,8.31v13.26a2.94,2.94,0,0,1-3,3,2.79,2.79,0,0,1-3-2.6v-1a11,11,0,0,1-8.77,3.92C314.4,243.61,309.91,240.71,309.91,235.3Zm18.46-1.94v-1.83a17.14,17.14,0,0,0-6.12-1.07c-4,0-6.32,1.68-6.32,4.48v.11c0,2.6,2.29,4.08,5.25,4.08C325.26,239.13,328.37,236.78,328.37,233.36Z"/></g></g></svg>